<mxfile host="app.diagrams.net" modified="2024-06-03T07:34:13.033Z" agent="Mozilla/5.0 (X11; Linux x86_64) AppleWebKit/537.36 (KHTML, like Gecko) Chrome/124.0.0.0 Safari/537.36" etag="3dPBGZPvYmQ9n7N5PYqg" version="24.4.13" type="github">
  <diagram id="C5RBs43oDa-KdzZeNtuy" name="Page-1">
    <mxGraphModel dx="1434" dy="791" grid="1" gridSize="10" guides="1" tooltips="1" connect="1" arrows="1" fold="1" page="1" pageScale="1" pageWidth="827" pageHeight="1169" math="0" shadow="0">
      <root>
        <mxCell id="WIyWlLk6GJQsqaUBKTNV-0" />
        <mxCell id="WIyWlLk6GJQsqaUBKTNV-1" parent="WIyWlLk6GJQsqaUBKTNV-0" />
        <mxCell id="M22JDrrdS0cxSVGpGgSq-5" value="" style="edgeStyle=orthogonalEdgeStyle;rounded=0;orthogonalLoop=1;jettySize=auto;html=1;" edge="1" parent="WIyWlLk6GJQsqaUBKTNV-1" source="WIyWlLk6GJQsqaUBKTNV-3" target="M22JDrrdS0cxSVGpGgSq-0">
          <mxGeometry relative="1" as="geometry" />
        </mxCell>
        <mxCell id="WIyWlLk6GJQsqaUBKTNV-3" value="Разбивка на страницы" style="rounded=1;whiteSpace=wrap;html=1;fontSize=12;glass=0;strokeWidth=1;shadow=0;" parent="WIyWlLk6GJQsqaUBKTNV-1" vertex="1">
          <mxGeometry x="280" y="159" width="120" height="40" as="geometry" />
        </mxCell>
        <mxCell id="M22JDrrdS0cxSVGpGgSq-6" value="" style="edgeStyle=orthogonalEdgeStyle;rounded=0;orthogonalLoop=1;jettySize=auto;html=1;" edge="1" parent="WIyWlLk6GJQsqaUBKTNV-1" source="M22JDrrdS0cxSVGpGgSq-0" target="M22JDrrdS0cxSVGpGgSq-1">
          <mxGeometry relative="1" as="geometry" />
        </mxCell>
        <mxCell id="M22JDrrdS0cxSVGpGgSq-10" value="" style="edgeStyle=orthogonalEdgeStyle;rounded=0;orthogonalLoop=1;jettySize=auto;html=1;" edge="1" parent="WIyWlLk6GJQsqaUBKTNV-1" source="M22JDrrdS0cxSVGpGgSq-0" target="M22JDrrdS0cxSVGpGgSq-2">
          <mxGeometry relative="1" as="geometry" />
        </mxCell>
        <mxCell id="M22JDrrdS0cxSVGpGgSq-0" value="Преобразование в ЧБ&lt;span style=&quot;background-color: initial;&quot;&gt;&amp;nbsp;&lt;/span&gt;" style="rounded=1;whiteSpace=wrap;html=1;fontSize=12;glass=0;strokeWidth=1;shadow=0;" vertex="1" parent="WIyWlLk6GJQsqaUBKTNV-1">
          <mxGeometry x="280" y="239" width="120" height="40" as="geometry" />
        </mxCell>
        <mxCell id="M22JDrrdS0cxSVGpGgSq-7" value="" style="edgeStyle=orthogonalEdgeStyle;rounded=0;orthogonalLoop=1;jettySize=auto;html=1;" edge="1" parent="WIyWlLk6GJQsqaUBKTNV-1" source="M22JDrrdS0cxSVGpGgSq-1" target="M22JDrrdS0cxSVGpGgSq-3">
          <mxGeometry relative="1" as="geometry" />
        </mxCell>
        <mxCell id="M22JDrrdS0cxSVGpGgSq-26" value="" style="edgeStyle=orthogonalEdgeStyle;rounded=0;orthogonalLoop=1;jettySize=auto;html=1;" edge="1" parent="WIyWlLk6GJQsqaUBKTNV-1" source="M22JDrrdS0cxSVGpGgSq-1" target="M22JDrrdS0cxSVGpGgSq-11">
          <mxGeometry relative="1" as="geometry" />
        </mxCell>
        <mxCell id="M22JDrrdS0cxSVGpGgSq-1" value="Выравнивание скана" style="rounded=1;whiteSpace=wrap;html=1;fontSize=12;glass=0;strokeWidth=1;shadow=0;" vertex="1" parent="WIyWlLk6GJQsqaUBKTNV-1">
          <mxGeometry x="280" y="319" width="120" height="40" as="geometry" />
        </mxCell>
        <mxCell id="M22JDrrdS0cxSVGpGgSq-21" value="" style="edgeStyle=orthogonalEdgeStyle;rounded=0;orthogonalLoop=1;jettySize=auto;html=1;" edge="1" parent="WIyWlLk6GJQsqaUBKTNV-1" source="M22JDrrdS0cxSVGpGgSq-2" target="M22JDrrdS0cxSVGpGgSq-20">
          <mxGeometry relative="1" as="geometry" />
        </mxCell>
        <mxCell id="M22JDrrdS0cxSVGpGgSq-25" value="" style="edgeStyle=orthogonalEdgeStyle;rounded=0;orthogonalLoop=1;jettySize=auto;html=1;" edge="1" parent="WIyWlLk6GJQsqaUBKTNV-1" source="M22JDrrdS0cxSVGpGgSq-2" target="M22JDrrdS0cxSVGpGgSq-11">
          <mxGeometry relative="1" as="geometry" />
        </mxCell>
        <mxCell id="M22JDrrdS0cxSVGpGgSq-2" value="Распознавание QR" style="rounded=1;whiteSpace=wrap;html=1;fontSize=12;glass=0;strokeWidth=1;shadow=0;" vertex="1" parent="WIyWlLk6GJQsqaUBKTNV-1">
          <mxGeometry x="440" y="239" width="120" height="40" as="geometry" />
        </mxCell>
        <mxCell id="M22JDrrdS0cxSVGpGgSq-9" value="" style="edgeStyle=orthogonalEdgeStyle;rounded=0;orthogonalLoop=1;jettySize=auto;html=1;" edge="1" parent="WIyWlLk6GJQsqaUBKTNV-1" source="M22JDrrdS0cxSVGpGgSq-3" target="M22JDrrdS0cxSVGpGgSq-8">
          <mxGeometry relative="1" as="geometry" />
        </mxCell>
        <mxCell id="M22JDrrdS0cxSVGpGgSq-16" value="" style="edgeStyle=orthogonalEdgeStyle;rounded=0;orthogonalLoop=1;jettySize=auto;html=1;" edge="1" parent="WIyWlLk6GJQsqaUBKTNV-1" source="M22JDrrdS0cxSVGpGgSq-3" target="M22JDrrdS0cxSVGpGgSq-4">
          <mxGeometry relative="1" as="geometry" />
        </mxCell>
        <mxCell id="M22JDrrdS0cxSVGpGgSq-18" value="" style="edgeStyle=orthogonalEdgeStyle;rounded=0;orthogonalLoop=1;jettySize=auto;html=1;" edge="1" parent="WIyWlLk6GJQsqaUBKTNV-1" source="M22JDrrdS0cxSVGpGgSq-3" target="M22JDrrdS0cxSVGpGgSq-14">
          <mxGeometry relative="1" as="geometry" />
        </mxCell>
        <mxCell id="M22JDrrdS0cxSVGpGgSq-3" value="Извлечение текста" style="rounded=1;whiteSpace=wrap;html=1;fontSize=12;glass=0;strokeWidth=1;shadow=0;" vertex="1" parent="WIyWlLk6GJQsqaUBKTNV-1">
          <mxGeometry x="280" y="399" width="120" height="40" as="geometry" />
        </mxCell>
        <mxCell id="M22JDrrdS0cxSVGpGgSq-19" value="" style="edgeStyle=orthogonalEdgeStyle;rounded=0;orthogonalLoop=1;jettySize=auto;html=1;" edge="1" parent="WIyWlLk6GJQsqaUBKTNV-1" source="M22JDrrdS0cxSVGpGgSq-4" target="M22JDrrdS0cxSVGpGgSq-17">
          <mxGeometry relative="1" as="geometry" />
        </mxCell>
        <mxCell id="M22JDrrdS0cxSVGpGgSq-4" value="Структурирование данных" style="rounded=1;whiteSpace=wrap;html=1;fontSize=12;glass=0;strokeWidth=1;shadow=0;" vertex="1" parent="WIyWlLk6GJQsqaUBKTNV-1">
          <mxGeometry x="440" y="399" width="120" height="40" as="geometry" />
        </mxCell>
        <mxCell id="M22JDrrdS0cxSVGpGgSq-8" value="Классификация" style="rounded=1;whiteSpace=wrap;html=1;fontSize=12;glass=0;strokeWidth=1;shadow=0;" vertex="1" parent="WIyWlLk6GJQsqaUBKTNV-1">
          <mxGeometry x="280" y="479" width="120" height="40" as="geometry" />
        </mxCell>
        <mxCell id="M22JDrrdS0cxSVGpGgSq-29" value="" style="edgeStyle=orthogonalEdgeStyle;rounded=0;orthogonalLoop=1;jettySize=auto;html=1;" edge="1" parent="WIyWlLk6GJQsqaUBKTNV-1" source="M22JDrrdS0cxSVGpGgSq-11" target="M22JDrrdS0cxSVGpGgSq-28">
          <mxGeometry relative="1" as="geometry" />
        </mxCell>
        <mxCell id="M22JDrrdS0cxSVGpGgSq-11" value="Наложение шаблона" style="rounded=1;whiteSpace=wrap;html=1;fontSize=12;glass=0;strokeWidth=1;shadow=0;" vertex="1" parent="WIyWlLk6GJQsqaUBKTNV-1">
          <mxGeometry x="440" y="319" width="120" height="40" as="geometry" />
        </mxCell>
        <mxCell id="M22JDrrdS0cxSVGpGgSq-23" value="" style="edgeStyle=orthogonalEdgeStyle;rounded=0;orthogonalLoop=1;jettySize=auto;html=1;" edge="1" parent="WIyWlLk6GJQsqaUBKTNV-1" source="M22JDrrdS0cxSVGpGgSq-12" target="WIyWlLk6GJQsqaUBKTNV-3">
          <mxGeometry relative="1" as="geometry">
            <mxPoint x="340" y="180" as="targetPoint" />
          </mxGeometry>
        </mxCell>
        <mxCell id="M22JDrrdS0cxSVGpGgSq-12" value="PDF" style="shape=card;whiteSpace=wrap;html=1;" vertex="1" parent="WIyWlLk6GJQsqaUBKTNV-1">
          <mxGeometry x="300" y="20" width="80" height="100" as="geometry" />
        </mxCell>
        <mxCell id="M22JDrrdS0cxSVGpGgSq-14" value="&lt;h1 style=&quot;margin-top: 0px;&quot;&gt;Текст&lt;/h1&gt;&lt;p&gt;Договор купли-продажи N 123 от 12.12.23&lt;/p&gt;" style="text;html=1;whiteSpace=wrap;overflow=hidden;rounded=0;" vertex="1" parent="WIyWlLk6GJQsqaUBKTNV-1">
          <mxGeometry x="70" y="359" width="180" height="120" as="geometry" />
        </mxCell>
        <mxCell id="M22JDrrdS0cxSVGpGgSq-17" value="&lt;h1 style=&quot;margin-top: 0px;&quot;&gt;JSON&lt;/h1&gt;&lt;p&gt;{&lt;br&gt;&amp;nbsp;docNumber: &quot;123&quot;&lt;br&gt;&amp;nbsp; docDate: &quot;2023-12-12&quot;&lt;br&gt;}&lt;/p&gt;" style="text;html=1;whiteSpace=wrap;overflow=hidden;rounded=0;" vertex="1" parent="WIyWlLk6GJQsqaUBKTNV-1">
          <mxGeometry x="600" y="374" width="180" height="90" as="geometry" />
        </mxCell>
        <mxCell id="M22JDrrdS0cxSVGpGgSq-20" value="&lt;h1 style=&quot;margin-top: 0px;&quot;&gt;Строка&lt;/h1&gt;&lt;p&gt;d3311f:statem:1&lt;/p&gt;" style="text;html=1;whiteSpace=wrap;overflow=hidden;rounded=0;" vertex="1" parent="WIyWlLk6GJQsqaUBKTNV-1">
          <mxGeometry x="600" y="218.5" width="180" height="81" as="geometry" />
        </mxCell>
        <mxCell id="M22JDrrdS0cxSVGpGgSq-28" value="Проверка наличия подписей" style="rounded=1;whiteSpace=wrap;html=1;fontSize=12;glass=0;strokeWidth=1;shadow=0;" vertex="1" parent="WIyWlLk6GJQsqaUBKTNV-1">
          <mxGeometry x="600" y="319" width="120" height="40" as="geometry" />
        </mxCell>
      </root>
    </mxGraphModel>
  </diagram>
</mxfile>
